<svg id="_001-transaction" data-name="001-transaction" xmlns="http://www.w3.org/2000/svg" width="59.959" height="74.948" viewBox="0 0 59.959 74.948">
  <defs>
    <style>
      .cls-1 {
        fill: #f1c322;
      }
    </style>
  </defs>
  <g id="Group_2" data-name="Group 2" transform="translate(5.021 62.537)">
    <g id="Group_1" data-name="Group 1" transform="translate(0)">
      <rect id="Rectangle_5" data-name="Rectangle 5" class="cls-1" width="2.256" height="2.256"/>
    </g>
  </g>
  <g id="Group_4" data-name="Group 4" transform="translate(7.278 36.362)">
    <g id="Group_3" data-name="Group 3" transform="translate(0)">
      <rect id="Rectangle_6" data-name="Rectangle 6" class="cls-1" width="2.708" height="2.256"/>
    </g>
  </g>
  <g id="Group_6" data-name="Group 6" transform="translate(19.914 4.772)">
    <g id="Group_5" data-name="Group 5" transform="translate(0)">
      <rect id="Rectangle_7" data-name="Rectangle 7" class="cls-1" width="2.708" height="2.708"/>
    </g>
  </g>
  <g id="Group_8" data-name="Group 8" transform="translate(24.878 4.772)">
    <g id="Group_7" data-name="Group 7" transform="translate(0)">
      <rect id="Rectangle_8" data-name="Rectangle 8" class="cls-1" width="2.708" height="2.708"/>
    </g>
  </g>
  <g id="Group_10" data-name="Group 10" transform="translate(0)">
    <g id="Group_9" data-name="Group 9">
      <path id="Path_1" data-name="Path 1" class="cls-1" d="M107.959,43.135V37.474a4.351,4.351,0,0,0-6.662-3.707,4.317,4.317,0,0,0-5.712-2.155l-.118.055V6.246A6.253,6.253,0,0,0,89.222,0H54.246A6.253,6.253,0,0,0,48,6.246V68.7a6.253,6.253,0,0,0,6.246,6.246H85.474v-5h17.488v5h2.5v-5h1.249a1.249,1.249,0,0,0,1.249-1.249V58.709a1.249,1.249,0,0,0-1.249-1.249H105.46V54A25.039,25.039,0,0,0,107.959,43.135ZM50.5,6.246A3.747,3.747,0,0,1,54.246,2.5H89.222a3.747,3.747,0,0,1,3.747,3.747V9.993H50.5Zm32.478,66.2H54.246A3.747,3.747,0,0,1,50.5,68.7V12.491H92.969v17.3a4.223,4.223,0,0,0-3.747,0V23.109a4.372,4.372,0,1,0-8.744,0V37.587A7.576,7.576,0,0,0,78.008,51.6l3.622,2.067a2.683,2.683,0,0,1,1.345,2.326V57.46H81.727a1.249,1.249,0,0,0-1.249,1.249v3.747H57.993v2.5H80.478V68.7a1.249,1.249,0,0,0,1.249,1.249h1.249Zm22.484-5H82.976V59.959H105.46Zm-2.373-14.3a1.248,1.248,0,0,0-.125.558V57.46H85.474V55.993a5.186,5.186,0,0,0-2.609-4.5l-3.622-2.069a5.058,5.058,0,0,1-2.512-4.458,5,5,0,0,1,3.747-4.819v4.819h2.5V23.109a1.874,1.874,0,1,1,3.747,0V39.972h2.5V33.727a1.874,1.874,0,0,1,3.747,0v6.246h2.5V35.6a1.874,1.874,0,1,1,3.747,0v4.372h2.5v-2.5a1.874,1.874,0,0,1,3.747,0V43.13A22.523,22.523,0,0,1,103.087,53.155Z" transform="translate(-48)"/>
    </g>
  </g>
  <g id="Group_12" data-name="Group 12" transform="translate(12.491 16.239)">
    <g id="Group_11" data-name="Group 11">
      <path id="Path_2" data-name="Path 2" class="cls-1" d="M135.333,113.112a3.553,3.553,0,0,0-1.81-2.126l-2.435-1.218a1.067,1.067,0,0,1,.476-2.021h.365A1.069,1.069,0,0,1,133,108.814V109h2.5v-.182a3.559,3.559,0,0,0-2.5-3.384V104h-2.5v1.43a3.553,3.553,0,0,0-.527,6.573l2.435,1.218a1.067,1.067,0,0,1-.476,2.021h-.365a1.069,1.069,0,0,1-1.067-1.067v-.182H128v.182a3.559,3.559,0,0,0,2.5,3.384v1.43H133v-1.43A3.553,3.553,0,0,0,135.333,113.112Z" transform="translate(-127.999 -104)"/>
    </g>
  </g>
  <g id="Group_14" data-name="Group 14" transform="translate(6.375 41.326)">
    <g id="Group_13" data-name="Group 13" transform="translate(0)">
      <rect id="Rectangle_9" data-name="Rectangle 9" class="cls-1" width="16.246" height="2.256"/>
    </g>
  </g>
  <g id="Group_16" data-name="Group 16" transform="translate(6.375 46.29)">
    <g id="Group_15" data-name="Group 15" transform="translate(0)">
      <rect id="Rectangle_10" data-name="Rectangle 10" class="cls-1" width="16.246" height="2.256"/>
    </g>
  </g>
  <g id="Group_18" data-name="Group 18" transform="translate(6.375 51.255)">
    <g id="Group_17" data-name="Group 17" transform="translate(0)">
      <rect id="Rectangle_11" data-name="Rectangle 11" class="cls-1" width="16.246" height="2.256"/>
    </g>
  </g>
  <g id="Group_20" data-name="Group 20" transform="translate(12.693 36.362)">
    <g id="Group_19" data-name="Group 19" transform="translate(0)">
      <rect id="Rectangle_12" data-name="Rectangle 12" class="cls-1" width="9.928" height="2.256"/>
    </g>
  </g>
  <g id="Group_22" data-name="Group 22" transform="translate(22.621 67.501)">
    <g id="Group_21" data-name="Group 21" transform="translate(0)">
      <rect id="Rectangle_13" data-name="Rectangle 13" class="cls-1" width="2.256" height="2.256"/>
    </g>
  </g>
  <g id="Group_24" data-name="Group 24" transform="translate(52.406 62.537)">
    <g id="Group_23" data-name="Group 23" transform="translate(0)">
      <rect id="Rectangle_14" data-name="Rectangle 14" class="cls-1" width="2.708" height="2.256"/>
    </g>
  </g>
</svg>
