<svg id="_002-call-center" data-name="002-call-center" xmlns="http://www.w3.org/2000/svg" width="56.549" height="74.529" viewBox="0 0 56.549 74.529">
  <defs>
    <style>
      .cls-1 {
        fill: #303133;
      }
    </style>
  </defs>
  <path id="Path_3" data-name="Path 3" class="cls-1" d="M84.686,51.7,80.6,55.814a.214.214,0,0,1-.155.064h0a.215.215,0,0,1-.154-.064L78.772,54.3a1.092,1.092,0,1,0-1.544,1.544l1.518,1.518a2.386,2.386,0,0,0,1.7.7h0a2.386,2.386,0,0,0,1.7-.709l4.087-4.116a1.092,1.092,0,0,0-1.55-1.538ZM86.23,21.97a1.092,1.092,0,0,0-1.544.006L80.6,26.091a.214.214,0,0,1-.155.064h0a.215.215,0,0,1-.154-.064l-1.518-1.518a1.092,1.092,0,1,0-1.544,1.544l1.518,1.518a2.386,2.386,0,0,0,1.7.7h0a2.386,2.386,0,0,0,1.7-.709l4.087-4.116A1.092,1.092,0,0,0,86.23,21.97Zm0,14.862a1.092,1.092,0,0,0-1.544.006L80.6,40.953a.214.214,0,0,1-.155.064h0a.215.215,0,0,1-.154-.064l-1.518-1.518a1.092,1.092,0,1,0-1.544,1.544L78.746,42.5a2.386,2.386,0,0,0,1.7.7h0a2.386,2.386,0,0,0,1.7-.709l4.087-4.116a1.092,1.092,0,0,0-.006-1.544ZM79.386,20.75H75.828a2.4,2.4,0,0,0-2.4,2.4v7.875a2.4,2.4,0,0,0,2.4,2.4H83.7a2.4,2.4,0,0,0,2.4-2.4V28.263a1.092,1.092,0,1,0-2.183,0v2.763a.219.219,0,0,1-.218.218H75.828a.219.219,0,0,1-.218-.218V23.151a.219.219,0,0,1,.218-.218h3.558a1.092,1.092,0,0,0,0-2.183ZM112.868,2.242h-5a1.092,1.092,0,1,0,0,2.183h5a3.261,3.261,0,0,1,3.258,3.258V69.088a3.262,3.262,0,0,1-3.258,3.258H67.2a3.261,3.261,0,0,1-3.258-3.258V7.683A3.262,3.262,0,0,1,67.2,4.425H75.47V6.591H67.926a1.819,1.819,0,0,0-1.817,1.817V53.366a1.092,1.092,0,1,0,2.183,0V8.775H73.48A3.251,3.251,0,0,0,73.3,9.858v3.028a3.27,3.27,0,0,0,3.266,3.266h26.946a3.27,3.27,0,0,0,3.266-3.266V9.858a3.251,3.251,0,0,0-.185-1.083h5.188V56.641h-5.665a5.447,5.447,0,0,0-5.441,5.442v5.666H68.293V57.733a1.092,1.092,0,0,0-2.183,0V68.116a1.819,1.819,0,0,0,1.817,1.817h33.835a1.1,1.1,0,0,0,.772-.32l0,0L113.64,58.5a1.1,1.1,0,0,0,.316-.7c0-.01,0-49.37,0-49.395a1.819,1.819,0,0,0-1.817-1.817H104.6V3.562A3.566,3.566,0,0,0,101.037,0H79.032a3.567,3.567,0,0,0-3.307,2.242H67.2A5.447,5.447,0,0,0,61.76,7.683V69.088A5.447,5.447,0,0,0,67.2,74.529h45.667a5.447,5.447,0,0,0,5.441-5.441V7.683a5.447,5.447,0,0,0-5.441-5.441ZM102.853,66.2V62.083a3.262,3.262,0,0,1,3.257-3.258h4.121ZM77.653,3.562a1.38,1.38,0,0,1,1.379-1.379h22.006a1.38,1.38,0,0,1,1.379,1.379V7.569a1.38,1.38,0,0,1-1.379,1.379H79.032a1.38,1.38,0,0,1-1.378-1.379Zm-2.175,6.3a1.079,1.079,0,0,1,.329-.776,3.566,3.566,0,0,0,3.224,2.049h22.006a3.566,3.566,0,0,0,3.224-2.049,1.079,1.079,0,0,1,.329.776v3.028a1.084,1.084,0,0,1-1.083,1.083H76.561a1.084,1.084,0,0,1-1.083-1.083Zm-2.053,36.03a2.4,2.4,0,0,0,2.4,2.4H83.7a2.4,2.4,0,0,0,2.4-2.4V43.125a1.092,1.092,0,0,0-2.183,0v2.763a.219.219,0,0,1-.218.218H75.828a.219.219,0,0,1-.218-.218V38.013a.219.219,0,0,1,.218-.218h3.558a1.092,1.092,0,0,0,0-2.183H75.828a2.4,2.4,0,0,0-2.4,2.4ZM89.98,52.656h15.571a1.092,1.092,0,1,0,0-2.183H89.98a1.092,1.092,0,0,0,0,2.183ZM73.426,60.749a2.4,2.4,0,0,0,2.4,2.4H83.7a2.4,2.4,0,0,0,2.4-2.4V57.987a1.092,1.092,0,0,0-2.183,0v2.762a.219.219,0,0,1-.218.218H75.828a.219.219,0,0,1-.218-.218V52.875a.219.219,0,0,1,.218-.218h3.558a1.092,1.092,0,0,0,0-2.183H75.828a2.4,2.4,0,0,0-2.4,2.4ZM89.98,57.023H99a1.092,1.092,0,1,0,0-2.183H89.98a1.092,1.092,0,0,0,0,2.183Zm0-14.862H99a1.092,1.092,0,1,0,0-2.183H89.98a1.092,1.092,0,0,0,0,2.183Zm0-4.367h15.571a1.092,1.092,0,1,0,0-2.183H89.98a1.092,1.092,0,0,0,0,2.183Zm0-10.495h15.571a1.092,1.092,0,1,0,0-2.183H89.98a1.092,1.092,0,0,0,0,2.183Zm0-4.367h15.571a1.092,1.092,0,1,0,0-2.183H89.98a1.092,1.092,0,0,0,0,2.183Z" transform="translate(-61.76 0)"/>
</svg>
