<svg id="Calendar" xmlns="http://www.w3.org/2000/svg" width="59.222" height="59.222" viewBox="0 0 59.222 59.222">
  <defs>
    <style>
      .cls-1 {
        fill: #303133;
      }
    </style>
  </defs>
  <path id="Path_4" data-name="Path 4" class="cls-1" d="M56.287,7.922H51.351V5.948a3.948,3.948,0,1,0-7.9,0V7.922h-7.9V5.948a3.948,3.948,0,1,0-7.9,0V7.922h-7.9V5.948a3.948,3.948,0,1,0-7.9,0V7.922H6.935A4.935,4.935,0,0,0,2,12.857V52.338a4.935,4.935,0,0,0,4.935,4.935H34.572a.987.987,0,1,0,0-1.974H6.935a2.97,2.97,0,0,1-2.961-2.961v-30.6H59.248V38.52a.987.987,0,0,0,1.974,0V12.857a4.935,4.935,0,0,0-4.935-4.935ZM45.429,5.948a1.974,1.974,0,0,1,3.948,0V11.87a1.974,1.974,0,0,1-3.948,0Zm-15.792,0a1.974,1.974,0,1,1,3.948,0V11.87a1.974,1.974,0,1,1-3.948,0Zm-15.792,0a1.974,1.974,0,0,1,3.948,0V11.87a1.974,1.974,0,1,1-3.948,0Zm45.4,13.818H3.974V12.857A2.97,2.97,0,0,1,6.935,9.9H11.87V11.87a3.948,3.948,0,1,0,7.9,0V9.9h7.9V11.87a3.948,3.948,0,1,0,7.9,0V9.9h7.9V11.87a3.948,3.948,0,1,0,7.9,0V9.9h4.935a2.97,2.97,0,0,1,2.961,2.961Z" transform="translate(-2 -2)"/>
  <path id="Path_5" data-name="Path 5" class="cls-1" d="M29.9,28.974A1.974,1.974,0,0,0,27.922,27H23.974A1.974,1.974,0,0,0,22,28.974v2.961a1.974,1.974,0,0,0,1.974,1.974h3.948A1.974,1.974,0,0,0,29.9,31.935Zm-5.922,2.961V28.974h3.948v2.961Z" transform="translate(-2.259 -2.324)"/>
  <path id="Path_6" data-name="Path 6" class="cls-1" d="M17.9,28.974A1.974,1.974,0,0,0,15.922,27H11.974A1.974,1.974,0,0,0,10,28.974v2.961a1.974,1.974,0,0,0,1.974,1.974h3.948A1.974,1.974,0,0,0,17.9,31.935Zm-5.922,2.961V28.974h3.948v2.961Z" transform="translate(-2.104 -2.324)"/>
  <path id="Path_7" data-name="Path 7" class="cls-1" d="M51.922,33.909A1.974,1.974,0,0,0,53.9,31.935V28.974A1.974,1.974,0,0,0,51.922,27H47.974A1.974,1.974,0,0,0,46,28.974v2.961a1.974,1.974,0,0,0,1.974,1.974Zm-3.948-4.935h3.948v2.961H47.974Z" transform="translate(-2.571 -2.324)"/>
  <path id="Path_8" data-name="Path 8" class="cls-1" d="M29.9,37.974A1.974,1.974,0,0,0,27.922,36H23.974A1.974,1.974,0,0,0,22,37.974v2.961a1.974,1.974,0,0,0,1.974,1.974h3.948A1.974,1.974,0,0,0,29.9,40.935Zm-5.922,2.961V37.974h3.948v2.961Z" transform="translate(-2.259 -2.441)"/>
  <path id="Path_9" data-name="Path 9" class="cls-1" d="M17.9,37.974A1.974,1.974,0,0,0,15.922,36H11.974A1.974,1.974,0,0,0,10,37.974v2.961a1.974,1.974,0,0,0,1.974,1.974h3.948A1.974,1.974,0,0,0,17.9,40.935Zm-5.922,2.961V37.974h3.948v2.961Z" transform="translate(-2.104 -2.441)"/>
  <path id="Path_10" data-name="Path 10" class="cls-1" d="M27.922,45H23.974A1.974,1.974,0,0,0,22,46.974v2.961a1.974,1.974,0,0,0,1.974,1.974h3.948A1.974,1.974,0,0,0,29.9,49.935V46.974A1.974,1.974,0,0,0,27.922,45Zm-3.948,4.935V46.974h3.948v2.961Z" transform="translate(-2.259 -2.558)"/>
  <path id="Path_11" data-name="Path 11" class="cls-1" d="M35.974,33.909h3.948A1.974,1.974,0,0,0,41.9,31.935V28.974A1.974,1.974,0,0,0,39.922,27H35.974A1.974,1.974,0,0,0,34,28.974v2.961A1.974,1.974,0,0,0,35.974,33.909Zm0-4.935h3.948v2.961H35.974Z" transform="translate(-2.415 -2.324)"/>
  <path id="Path_12" data-name="Path 12" class="cls-1" d="M34,40.935a1.974,1.974,0,0,0,1.974,1.974.987.987,0,1,0,0-1.974V37.974h3.948a.987.987,0,1,0,0-1.974H35.974A1.974,1.974,0,0,0,34,37.974Z" transform="translate(-2.415 -2.441)"/>
  <path id="Path_13" data-name="Path 13" class="cls-1" d="M15.922,45H11.974A1.974,1.974,0,0,0,10,46.974v2.961a1.974,1.974,0,0,0,1.974,1.974h3.948A1.974,1.974,0,0,0,17.9,49.935V46.974A1.974,1.974,0,0,0,15.922,45Zm-3.948,4.935V46.974h3.948v2.961Z" transform="translate(-2.104 -2.558)"/>
  <path id="Path_14" data-name="Path 14" class="cls-1" d="M48.831,36A12.831,12.831,0,1,0,61.663,48.831,12.831,12.831,0,0,0,48.831,36Zm0,23.689A10.857,10.857,0,1,1,59.689,48.831,10.857,10.857,0,0,1,48.831,59.689Z" transform="translate(-2.441 -2.441)"/>
  <path id="Path_15" data-name="Path 15" class="cls-1" d="M54.609,44.8l-7.677,7.677-3.489-3.49a.987.987,0,1,0-1.4,1.4l4.187,4.188a.987.987,0,0,0,1.4,0L56,46.2a.987.987,0,1,0-1.4-1.4Z" transform="translate(-2.516 -2.551)"/>
</svg>
